<svg width="23" height="23" fill="none" xmlns="http://www.w3.org/2000/svg"><g clip-path="url(#clip0)"><path d="M19.63 3.367c-4.491-4.49-11.773-4.49-16.263.002-4.49 4.492-4.49 11.773.002 16.264 4.492 4.49 11.773 4.489 16.264-.003a11.5 11.5 0 00-.003-16.263zm-2.214 12.652l-.002.002v-.004l-.582.579a3.067 3.067 0 01-2.894.828 10.188 10.188 0 01-2.96-1.327 13.668 13.668 0 01-2.334-1.882A13.772 13.772 0 016.9 12.099a10.73 10.73 0 01-1.311-2.653 3.067 3.067 0 01.766-3.131l.683-.683a.487.487 0 01.688-.001l.002.001 2.154 2.155c.19.19.191.497.001.688l-.001.002-1.265 1.265a1.03 1.03 0 00-.107 1.341c.457.628.963 1.219 1.514 1.767.613.617 1.28 1.177 1.993 1.676.412.287.97.238 1.326-.115l1.223-1.242a.487.487 0 01.689-.002l.001.002 2.158 2.162c.191.19.192.498.002.688z" fill="#fff"/></g><defs><clipPath id="clip0"><path fill="#fff" d="M0 0h23v23H0z"/></clipPath></defs></svg>