<svg width="151" height="120" fill="none" xmlns="http://www.w3.org/2000/svg"><g clip-path="url(#clip0)"><path d="M87.254 104.873c.526-1.092 1.805-1.499 2.938-1.514 5.758-.02 11.519.021 17.279-.022.054 2.166.006 4.336.021 6.505-6.917.012-13.838.031-20.754-.011.078-1.65-.215-3.413.516-4.958z" fill="#fff"/><path d="M60.649.582C77.17 0 93.709.578 110.201 1.638c1.736.15 3.495.138 5.205.504.924.223 1.924.576 2.465 1.416.493.915.503 1.983.631 2.99.393 4.95.508 9.921.878 14.871-.714.087-1.429-.022-2.143-.045-12.72-.659-25.451-1.206-38.192-1.223-6.599.019-13.206-.045-19.798.275-1.598.236-3.407.77-4.33 2.195 4.989.886 9.967 1.842 14.953 2.745 16.525 3.093 33.063 6.119 49.588 9.208-.014 3.135-.008 6.27-.002 9.405-9.293-1.539-18.569-3.2-27.856-4.787-19.98-3.445-39.953-6.937-59.939-10.349.04-3.48.188-6.957.26-10.439.126-2.757.048-5.55.672-8.258.419-1.91 1.195-3.83 2.642-5.196 2.498-2.474 6.112-3.17 9.475-3.519C50.01.94 55.333.78 60.649.582zm-29.083 32.84c28.625 5.283 57.239 10.654 85.859 15.967.625.153 1.294.166 1.895.395l.072.165c-.157 4.696-.247 9.396-.417 14.093-.109 2.897-.415 5.928-1.905 8.48-1.598 2.64-4.576 4.1-7.522 4.652-4.342.815-8.777.869-13.174 1.11-18.923.86-37.885.385-56.776-.916-1.51-.106-3.045-.132-4.511-.552-.76-.24-1.545-.625-1.974-1.328-.46-.92-.49-1.972-.603-2.975-.405-5.48-.62-10.968-.906-16.453 9.745.62 19.506.966 29.27 1.183 9.427.153 18.854.15 28.282.244 2.033.084 4.232-.304 5.774-1.733.225-.258.59-.498.554-.884-4.25-.638-8.474-1.43-12.714-2.129-17.063-2.918-34.133-5.81-51.193-8.744-.021-3.525.004-7.05-.01-10.575zm51.584 67.965c1.486-1.547 3.722-2.04 5.795-2.086 8.01-.002 16.022-.012 24.032.007.013 6.897.027 13.795-.006 20.692h-5.457a204.624 204.624 0 01-.008-6.018c-6.888-.132-13.79.004-20.681-.068-.184 2.014-.015 4.06-.087 6.086h-5.453c-.074-4.335 0-8.676-.037-13.012-.006-1.995.446-4.143 1.901-5.601zm4.104 3.486c-.73 1.545-.438 3.308-.516 4.958 6.916.042 13.837.023 20.754.011-.015-2.169.033-4.339-.021-6.505-5.76.043-11.52.002-17.279.022-1.133.015-2.411.422-2.938 1.514zm32.417-5.553c10.373-.054 20.748.002 31.123-.027.08 1.351.043 2.71.018 4.062-4.28-.004-8.558 0-12.838-.002.017 5.549.021 11.098-.002 16.647h-5.438c-.114-5.026-.017-10.057-.052-15.086-.06-.532.188-1.148-.128-1.619-.906.116-1.819.035-2.727.058-3.318-.008-6.636.017-9.954-.01-.014-1.34-.021-2.683-.002-4.023z" fill="#19191B"/><path d="M2.698 100.018c1.444-.731 3.108-.733 4.687-.719 8.257.013 16.515-.025 24.772.017.002 1.315.01 2.631-.006 3.946-8.393.075-16.792-.008-25.185.039-.68-.033-1.546.246-1.693 1-.07.582-.114 1.322.407 1.724.468.401 1.125.403 1.707.469 6.834.57 13.67 1.124 20.504 1.696 1.588.192 3.329.483 4.505 1.666 1.138 1.126 1.36 2.827 1.318 4.353-.017 1.557-.372 3.245-1.549 4.354-1.078.917-2.527 1.375-3.933 1.29-9.006-.022-18.016.027-27.022-.029-.037-1.305-.075-2.616.023-3.919 8.454.049 16.911.008 25.366.021.576.016 1.214-.044 1.651-.459.517-.624.541-1.553.209-2.267-.39-.622-1.173-.744-1.844-.783-5.991-.512-11.985-1.004-17.979-1.508-1.858-.181-3.776-.173-5.547-.836-1.097-.415-2.046-1.249-2.46-2.36-.503-1.142-.243-2.408-.321-3.61-.104-1.671.858-3.383 2.39-4.085zm38.062-.713c10.56-.016 21.122-.002 31.682-.006.095.01.283.035.378.048-.002 1.311-.029 2.627.008 3.94-.326.114-.677.056-1.011.068-8.517-.01-17.032.01-25.546-.01-.037 1.34-.01 2.682-.013 4.025 6.25.037 12.502.004 18.752.016 2.248.037 4.507-.078 6.747.06a112.42 112.42 0 00.002 3.852c-.525.086-1.06.068-1.588.066-7.974-.002-15.947.002-23.92-.002.036 1.129-.1 2.358.482 3.38.603 1.022 1.918 1.157 2.99 1.179 7.693.007 15.386.015 23.08-.004.025 1.293.003 2.588.009 3.881-3.145.115-6.306.018-9.456.055-5.432-.01-10.862.004-16.292.002-1.906-.138-3.898-.879-5.065-2.461-1.02-1.378-1.303-3.145-1.26-4.82.02-4.424-.022-8.847.021-13.269z" fill="#19181B"/></g><defs><clipPath id="clip0"><path fill="#fff" d="M0 0h151v120H0z"/></clipPath></defs></svg>