<svg width="116" height="116" fill="none" xmlns="http://www.w3.org/2000/svg"><path fill-rule="evenodd" clip-rule="evenodd" d="M57.978 1.724c-31.092 0-56.297 25.206-56.297 56.298 0 31.092 25.205 56.297 56.297 56.297 31.091 0 56.298-25.205 56.298-56.297 0-31.091-25.207-56.298-56.298-56.298zm0 107.547c-28.305 0-51.25-22.945-51.25-51.25 0-28.303 22.946-51.249 51.25-51.249s51.25 22.946 51.25 51.25-22.946 51.249-51.25 51.249z" fill="#000"/><path fill-rule="evenodd" clip-rule="evenodd" d="M46.758 19.732a39.901 39.901 0 0111.22-1.6c3.891 0 7.653.558 11.208 1.597L57.978 44.572l-11.22-24.84z" fill="#000"/><path fill-rule="evenodd" clip-rule="evenodd" d="M79.39 24.36A40.138 40.138 0 0190.198 34.5L71.802 75.208l-7.099-15.785h-13.45l-7.097 15.784-18.37-40.745A40.104 40.104 0 0136.565 24.36l14.689 32.587h13.495L79.391 24.36zM19.438 47.698a39.954 39.954 0 00-1.349 10.324c0 15.632 8.991 29.163 22.084 35.706l-20.735-46.03z" fill="#000"/><path fill-rule="evenodd" clip-rule="evenodd" d="M46.943 96.366a39.883 39.883 0 0011.035 1.546A39.95 39.95 0 0069 96.37L57.978 71.891 46.943 96.367zm28.84-2.638c13.094-6.543 22.084-20.074 22.084-35.706a40 40 0 00-1.324-10.237l-20.76 45.943z" fill="#000"/></svg>