<svg width="116" height="115" fill="none" xmlns="http://www.w3.org/2000/svg"><path d="M57.938 114.941c31.97 0 57.876-25.715 57.876-57.445C115.814 25.763 89.908 0 57.938 0 25.97 0 .013 25.763.013 57.495c0 31.731 25.956 57.446 57.925 57.446z" fill="#000C0A"/><path d="M57.937 113.499c31.168 0 56.423-25.067 56.423-56.003 0-30.937-25.255-56.054-56.423-56.054-31.168 0-56.423 25.117-56.423 56.053 0 30.937 25.255 56.004 56.423 56.004z" fill="#fff"/><path d="M57.937 111.807c30.215 0 54.769-24.32 54.769-54.311 0-30.042-24.554-54.363-54.77-54.363-30.215 0-54.768 24.321-54.768 54.363 0 29.99 24.553 54.311 54.769 54.311z" fill="#000C0A"/><path d="M57.937 91.415c18.89 0 34.174-15.218 34.174-33.92 0-18.75-15.283-33.97-34.174-33.97s-34.224 15.22-34.224 33.97c0 18.702 15.333 33.92 34.224 33.92zM64.25 8.604c1.452 2.04 1.653 4.875 1.252 7.31-.45 2.24-2.254 3.632-4.309 4.279-3.207.398-7.115 1.193-9.971-1.84-1.604-2.239-1.604-5.074-1.003-7.909.802-3.033 4.31-3.83 7.166-4.029 2.506 0 5.06.399 6.865 2.189z" fill="#fff"/><path d="M60.592 11.09c.2 1.841.802 4.676-.6 6.268-1.253.895-3.007 1.243-4.26.398-1.654-1.592-1.403-4.029-1.002-6.068.2-1.194 1.002-2.437 2.255-2.636 1.352-.2 3.207.398 3.607 2.039z" fill="#000C0A"/><path d="M88.604 17.905c.851 2.437 0 4.675-1.204 6.665-1.002 1.84-3.808 3.332-5.311 3.084-3.307-.597-6.114-2.636-9.37-4.625l6.464-11.59c3.307 1.79 7.366 2.835 9.42 6.466z" fill="#fff"/><path d="M84.746 18.502c.2 1.84-.602 3.88-2.256 5.073-1.603 1.244-4.91-1.194-4.91-1.194l3.657-6.714c1.454.845 3.108 1.243 3.509 2.835z" fill="#000C0A"/><path d="M18.401 29.444c-1.203 1.393-2.656 2.636-2.856 4.426 0 .597.55 1.343 1.252 1.244 2.005-1.642 4.06-5.073 6.916-4.277 1.453 0 2.856 1.442 3.256 2.635.853 3.63-1.803 6.715-4.259 9.102l-2.254-1.392c1.653-1.443 4.059-3.63 3.056-5.87-3.157-1.541-3.658 4.228-6.915 4.228-1.453 0-3.407-.995-3.908-2.636 0 0-.2-.995-.2-1.641-.05-1.144.45-2.388 1.001-3.432a17.284 17.284 0 011.253-1.79L16.597 28l1.804 1.443zm-5.913 3.431c-.45.05-1.253.15-1.753.2.1-.349.55-1.443.55-1.443l1.604-.248-.752-1.294c.351-.497.601-1.044.953-1.541l.901 1.64-1.503 2.686zm91.6 2.587L94.065 46.553l-1.903-4.028 2.405-2.289-2.707-4.624-3.056.695-2.306-3.233 14.683-2.437 2.907 4.825z" fill="#fff"/><path d="M96.17 38.197l-1.804-3.232 6.163-1.194-4.36 4.426z" fill="#000C0A"/><path d="M37.142 101.959l-3.057-1.94.652-2.137-2.757-2.04-2.004 1.343a95.893 95.893 0 01-2.305-2.089l7.967-5.87 4.11 2.438-2.606 10.295zm48.505-8.255c.751 1.69.2 3.481-1.053 4.476-1.603 1.64-3.457 2.635-5.711 2.437-2.005-.2-3.659-2.24-4.26-3.83-.4-1.642-.4-3.383.802-4.476 1.653-1.443 3.257-2.389 5.512-2.636 2.054 0 3.909 2.238 4.71 4.029z" fill="#fff"/><path d="M35.588 95.942l-1.904-1.344 2.706-2.238-.802 3.582zm47.003-.746c.65 1.442-.05 2.785-1.604 3.032-2.104.399-2.807-1.888-3.508-3.083-.6-1.194.2-2.834 1.605-3.034 2.053-.398 2.704 1.89 3.507 3.085z" fill="#000C0A"/><path d="M47.865 102.01c-.05 1.043 1.904 1.74 2.606.645.25-.745.902-4.427 1.303-6.664 1.051.249 2.254.498 3.056.698-.25 1.689-.5 6.413-2.555 8.206-1.404 1.043-3.658.447-5.111 0-3.258-1.145-2.706-3.831-2.706-3.831l1.503-6.266 3.107.645-1.203 6.567zm18.69-4.278l1.454 7.212-3.207.647-1.453-7.262-2.506.596-.5-2.189 8.317-1.84.602 2.19-2.706.646z" fill="#fff"/><path d="M63.9 28.947c8.719 9.3 13.53 21.884 9.771 35.213 0 0-1.103 3.183-1.403 4.476-.25 1.293-.2 2.288-.2 2.288.4.846 1.703 1.094 2.555.895.851-.845-.652-1.94.2-2.984 4.21-.398 7.717 2.537 10.874 5.272-2.755 3.334-6.915 6.515-11.174 5.472-.6-.846 1.352-1.94.05-2.786l-31.017-.05c-.902.05-2.556 2.687-3.508 2.936-1.353.298-3.608.247-4.209-.1-1.303-1.295-1.603-3.382-2.455-4.875-.852-1.84-4.71-3.73-4.06-5.123.302-.497 7.718-1.591 12.478.1 1.804.796 3.658 2.437 5.562 1.939.1-.05.25-.099.35-.348.502-5.77-3.707-12.136-9.87-15.07-1.805-.846-3.107-1.045-4.861-.895-1.854.099-3.808.298-5.06-.597-1.053-.796-.853-3.482-.051-6.118a24.85 24.85 0 011.503-3.53c2.506-5.472 10.423.347 11.475.894 1.353.697 2.756 2.189 3.157.25-.1-1.244-2.556-2.438-4.16-3.284-4.71-2.486-7.716-1.89-6.213-4.724.451-.846 1.954-2.785 4.009-4.526 2.105-1.84 4.76-3.581 6.714-3.83 3.508-.348 7.266 4.576 7.266 4.576l4.46 4.924c.852.497 1.353-.05 1.453-.398.25-.746-.45-1.543-.45-1.543s-2.055-2.486-3.158-3.58c-1.052-1.094-4.159-4.028-4.159-4.028-1.202-2.09 1.053-2.736 2.305-2.935 4.059-.399 8.518-1.492 11.826 2.088z" fill="#000"/><path d="M64 69.283c2.605 0 4.71-2.09 4.71-4.676 0-2.586-2.105-4.724-4.71-4.724-2.606 0-4.71 2.138-4.71 4.724 0 2.587 2.104 4.676 4.71 4.676zm-27.01-51.08c2.406 1.492 5.412 2.487 7.818 4.178l-4.11 1.94-7.215-3.73.1-7.61 3.708-1.94c.4 2.04-.25 4.924-.3 7.162zm-2.906 10.445L26.62 17.557l3.107-2.189 7.516 10.943-3.157 2.337z" fill="#fff"/></svg>