<svg width="184" height="116" fill="none" xmlns="http://www.w3.org/2000/svg"><path fill-rule="evenodd" clip-rule="evenodd" d="M154.978 114.298V89.786h-10.072v24.512h10.072zm-53.321-10.178V90.157h-9.762v10.674c0 3.102-.123 3.972-.308 4.779-.68 2.234-3.028 3.225-5.437 3.225-3.336 0-4.88-1.303-5.499-3.35-.185-.681-.247-1.426-.308-2.171-.062-.807 0-1.676 0-2.605V90.158h-9.886v14.025c0 3.167 1.051 5.524 2.78 7.137 2.966 2.917 7.97 3.786 12.604 3.786 5.622 0 9.948-.807 13.036-3.847 1.608-1.553 2.78-3.601 2.78-7.139zm-47.944-1.738a8.366 8.366 0 00-1.482-.123h-11.12c-.557 0-1.175.062-1.484.123.185-.187.557-.557.927-1.054l5.004-8.317c.68-1.116.988-1.86 1.112-2.17.123.31.432 1.054 1.112 2.234l5.128 8.379c.248.371.618.741.803.928zm18.66 11.916L50.13 80.788H37.65l3.274 3.91c.062.062.186.123.309.187-.124.062-.247.123-.309.185l-19.4 29.228H32.77l3.028-5.027c.123-.248.185-.497.185-.62.123 0 .433.123.742.123h20.08c.308 0 .554-.062.678-.123a.842.842 0 00.123.497l3.152 5.15h11.615zm69.816-12.596c0-2.732-1.113-5.897-4.572-10.304l-8.342-10.61H117.66l6.61 7.446c1.113 1.242 2.534 2.358 2.534 2.358-1.606-.932-3.645-1.303-5.251-1.303-3.83 0-7.725.807-11.183 2.731-3.708 2.046-6.179 5.46-6.179 9.992 0 3.474 1.545 6.143 3.522 8.191 4.449 4.467 12.541 4.902 15.507 4.902 4.386 0 11.244-.993 15.138-4.53 2.287-2.111 3.831-5.026 3.831-8.873zm-9.639.31c0 2.544-1.669 4.467-3.769 5.521-1.73.932-3.77 1.18-5.561 1.18s-3.892-.373-5.622-1.242c-2.1-1.054-3.708-3.102-3.708-5.337 0-2.667 2.039-4.779 4.45-5.834 1.483-.68 3.275-.93 4.694-.93 1.361 0 3.338.186 4.883.808 2.781 1.177 4.633 3.412 4.633 5.834zM151.778.895a31.898 31.898 0 00-19.926 6.954A31.899 31.899 0 00111.925.895a31.904 31.904 0 00-19.926 6.954A31.89 31.89 0 0072.073.895a31.904 31.904 0 00-19.925 6.954A31.902 31.902 0 0032.222.895C14.47.895.085 15.343.085 33.173c0 17.829 14.384 32.279 32.137 32.279a31.905 31.905 0 0019.925-6.954 31.902 31.902 0 0019.926 6.954A31.893 31.893 0 0092 58.498a31.904 31.904 0 0019.926 6.954 31.9 31.9 0 0019.927-6.954 31.895 31.895 0 0019.926 6.954c17.751 0 32.136-14.449 32.136-32.279 0-17.83-14.385-32.278-32.136-32.278zM46.889 53.225c-4.095 3-9.21 4.832-14.667 4.832-13.694 0-24.775-11.13-24.775-24.884S18.527 8.29 32.222 8.29c5.457 0 10.57 1.832 14.667 4.834a32.178 32.178 0 00-6.951 20.05 32.417 32.417 0 006.951 20.052zm5.26-5.267A24.807 24.807 0 0147.3 33.173a24.765 24.765 0 014.849-14.785 24.774 24.774 0 014.848 14.785 24.812 24.812 0 01-4.849 14.785zm34.593 5.267a24.597 24.597 0 01-14.686 4.824 24.522 24.522 0 01-14.65-4.824 32.408 32.408 0 006.951-20.05 32.178 32.178 0 00-6.951-20.051 24.514 24.514 0 0114.65-4.826 24.605 24.605 0 0114.686 4.826 32.178 32.178 0 00-6.952 20.05 32.41 32.41 0 006.952 20.051zm5.257-5.267a24.806 24.806 0 01-4.848-14.785 24.772 24.772 0 014.848-14.785 24.768 24.768 0 014.85 14.785 24.806 24.806 0 01-4.85 14.785zm34.594 5.267a24.593 24.593 0 01-14.684 4.824 24.52 24.52 0 01-14.652-4.824 32.404 32.404 0 006.952-20.05 32.181 32.181 0 00-6.952-20.051 24.513 24.513 0 0114.652-4.826 24.6 24.6 0 0114.684 4.826 32.186 32.186 0 00-6.951 20.05 32.423 32.423 0 006.951 20.051zm5.26-5.267a24.804 24.804 0 01-4.849-14.785 24.76 24.76 0 014.849-14.785 24.78 24.78 0 014.848 14.785 24.825 24.825 0 01-4.848 14.785zm19.925 10.099c-5.459 0-10.573-1.831-14.667-4.832a32.416 32.416 0 006.951-20.05 32.186 32.186 0 00-6.951-20.051c4.098-3 9.209-4.834 14.667-4.834 13.692 0 24.775 11.13 24.775 24.884 0 13.753-11.083 24.883-24.775 24.883z" fill="#000"/></svg>