<svg width="54" height="54" fill="none" xmlns="http://www.w3.org/2000/svg"><path d="M27 29.51c3.61 0 12.098-4.344 12.098-14.755 0-1.452-.035-2.855-.155-4.18-.196-2.609-.73-4.92-2.06-6.692C35.175 1.473 32.19 0 27 0c-5.19 0-8.175 1.471-9.881 3.882-1.331 1.772-1.866 4.084-2.062 6.693-.12 1.326-.155 2.728-.155 4.18 0 10.41 8.488 14.755 12.098 14.755zm3.95-24.103l-.881 2.226c-2.276-.643-3.86-.643-6.136 0l-.881-2.226c2.846-.862 5.052-.862 7.898 0zm-14.247 7.092c.14.305.731 1.477 1.648 1.587 1.053.126 2.802-3.732 8.65-3.741 5.848.01 7.597 3.867 8.65 3.74.917-.11 1.509-1.281 1.648-1.586.029.747.04 1.503.04 2.257 0 5.089-2.248 8.242-4.133 9.99C30.83 26.95 28.193 27.75 27 27.75c-1.193 0-3.83-.8-6.205-3.004-1.885-1.75-4.132-4.902-4.132-9.99 0-.755.01-1.511.039-2.258z" fill="#fff"/><path d="M49.46 44.643c-.617-3.84-1.889-8.788-4.44-10.546-1.741-1.2-7.818-4.447-10.413-5.834l-.044-.023a.848.848 0 00-.923.081c-1.36 1.067-2.848 1.786-4.425 2.137a.848.848 0 00-.609.527L27 35.22l-1.606-4.234a.847.847 0 00-.609-.526c-1.577-.352-3.066-1.07-4.425-2.138a.848.848 0 00-.923-.081c-2.564 1.37-8.716 4.683-10.45 5.852-2.936 1.978-4.22 9.136-4.447 10.551a.852.852 0 00.037.418c.063.176 1.034 2.691 5.89 4.713.28-.352.653-.62 1.072-.77a2.407 2.407 0 01-1.262-1.035 2.405 2.405 0 01-.043-2.373 7.103 7.103 0 016.226-3.7c2.415 0 4.604 1.2 5.904 3.15h9.267c.254-.38.546-.735.873-1.064a7.053 7.053 0 015.018-2.087h.003a7.11 7.11 0 016.23 3.682 2.409 2.409 0 01-.036 2.373c-.288.486-.739.85-1.26 1.037.427.151.806.423 1.088.782 4.844-2.022 5.814-4.532 5.876-4.708a.854.854 0 00.038-.418z" fill="#fff"/><path d="M41.663 50.944l-4.465.006c-.08-.188-.231-.71-.233-1.955-.002-1.245.148-1.768.227-1.956l4.464-.007a.302.302 0 00.264-.447 5.01 5.01 0 00-4.395-2.595 4.971 4.971 0 00-3.537 1.471 4.984 4.984 0 00-1.105 1.68H21.111a5.016 5.016 0 00-4.651-3.15 5.007 5.007 0 00-4.387 2.61.301.301 0 00.264.445l4.465-.007c.08.188.231.71.233 1.955.002 1.246-.148 1.768-.227 1.956l-4.464.007a.302.302 0 00-.263.447A5.008 5.008 0 0016.468 54h.007a4.972 4.972 0 003.537-1.472 4.988 4.988 0 001.104-1.68h11.772A5.013 5.013 0 0037.533 54h.007a5.01 5.01 0 004.388-2.61.302.302 0 00-.265-.445z" fill="#fff"/></svg>